<?xml version="1.0" standalone="no"?>
<!DOCTYPE svg PUBLIC "-//W3C//DTD SVG 20010904//EN"
 "http://www.w3.org/TR/2001/REC-SVG-20010904/DTD/svg10.dtd">
<svg version="1.0" xmlns="http://www.w3.org/2000/svg"
 width="380.000000pt" height="380.000000pt" viewBox="0 0 380.000000 380.000000"
 preserveAspectRatio="xMidYMid meet">
<metadata>
Created by potrace 1.11, written by Peter Selinger 2001-2013
</metadata>
<g transform="translate(0.000000,380.000000) scale(0.100000,-0.100000)"
fill="#000000" stroke="none">
<path d="M2211 3717 c-6 -6 -11 -8 -11 -4 0 6 -51 -12 -135 -49 -22 -10 -44
-19 -50 -20 -5 -2 -89 -36 -186 -76 l-177 -74 14 -27 c11 -21 20 -26 37 -22
12 3 34 7 50 9 15 1 30 5 33 8 8 8 72 0 94 -12 19 -10 50 -64 50 -87 0 -7 5
-13 10 -13 7 0 7 -6 0 -20 -7 -14 -7 -20 0 -20 5 0 9 -3 9 -7 -1 -5 -1 -500 0
-1100 l1 -1093 53 -29 c28 -16 57 -34 62 -38 13 -12 146 -75 185 -88 3 -1 12
-4 20 -8 27 -10 114 -36 145 -43 49 -11 324 -14 330 -4 3 5 12 7 20 3 9 -3 22
0 29 6 8 7 20 11 28 10 7 -1 20 0 28 3 8 4 24 9 35 14 11 4 25 8 32 10 7 1 25
11 40 22 15 11 30 20 33 19 10 0 91 44 113 62 12 11 50 42 85 70 34 29 62 55
62 59 0 5 24 34 54 65 30 31 58 67 62 79 4 13 9 25 13 28 14 11 70 128 82 170
15 53 14 51 21 70 17 47 28 103 28 148 0 28 5 54 10 57 7 4 7 13 0 26 -8 13
-7 19 0 19 6 0 8 5 5 11 -9 13 -13 69 -6 69 3 0 6 11 6 25 0 14 -3 25 -7 25
-4 0 -3 11 2 25 5 13 6 26 2 29 -5 3 -9 26 -11 53 -1 26 -5 50 -9 53 -4 3 -7
14 -8 25 -2 33 -11 78 -23 108 -6 16 -9 33 -5 38 3 5 1 9 -4 9 -5 0 -21 26
-35 58 -42 90 -61 122 -74 122 -7 0 -13 6 -13 14 0 20 -149 158 -192 179 -20
10 -40 22 -43 26 -3 5 -20 13 -38 16 -17 4 -48 15 -67 24 -46 21 -219 28 -281
10 -24 -7 -46 -13 -49 -14 -21 -5 -86 -38 -109 -54 -16 -11 -31 -18 -35 -14
-3 3 -6 -1 -6 -11 0 -9 -4 -15 -8 -12 -9 5 -172 -148 -172 -161 0 -5 -9 -15
-19 -23 -11 -7 -18 -16 -17 -19 2 -3 -5 -15 -16 -26 l-20 -20 2 20 c1 11 2
306 1 656 l-1 637 -24 4 c-14 3 -30 0 -35 -5z m579 -1242 c16 -8 30 -13 30
-10 0 13 107 -52 142 -86 20 -21 39 -34 42 -31 3 3 6 -2 6 -12 0 -9 5 -14 10
-11 6 3 10 1 10 -5 0 -6 14 -31 30 -55 17 -24 30 -48 30 -54 0 -6 5 -11 10
-11 6 0 10 -8 10 -18 0 -10 4 -22 8 -27 5 -6 15 -30 22 -55 8 -25 17 -50 21
-55 4 -6 4 -17 -1 -25 -5 -9 -5 -17 1 -20 12 -8 28 -170 17 -176 -4 -3 -3 -14
2 -25 6 -11 7 -19 1 -19 -5 0 -6 -14 -1 -35 4 -20 4 -38 -1 -41 -5 -3 -5 -13
1 -25 7 -12 7 -19 1 -19 -6 0 -8 -6 -5 -13 9 -26 -41 -247 -56 -247 -4 0 -6
-11 -5 -25 2 -14 0 -25 -4 -25 -4 0 -13 -16 -20 -35 -7 -19 -16 -35 -20 -35
-5 0 -14 -14 -21 -30 -7 -17 -22 -37 -34 -46 -11 -8 -20 -17 -18 -19 1 -3 -1
-5 -4 -4 -4 0 -15 -12 -25 -28 -10 -15 -19 -25 -19 -21 0 4 -15 -7 -32 -23
-18 -16 -43 -32 -55 -35 -13 -4 -23 -10 -23 -16 0 -5 -4 -6 -10 -3 -5 3 -10 2
-10 -3 0 -12 -9 -13 -125 -17 -54 -2 -104 0 -110 4 -5 4 -30 13 -55 20 -52 15
-148 67 -171 93 -9 10 -19 15 -23 11 -3 -3 -6 0 -6 8 0 8 -14 22 -30 31 l-30
17 0 533 0 533 71 60 c39 33 77 61 85 63 8 2 14 8 14 13 0 6 5 7 10 4 6 -3 10
-2 10 3 0 6 14 15 30 21 17 5 30 8 30 5 0 -3 7 2 16 11 10 9 25 14 35 12 11
-3 21 -2 24 3 9 15 163 12 195 -5z"/>
<path d="M1063 3704 c-13 -3 -23 -10 -23 -15 0 -6 -4 -8 -8 -5 -4 2 -23 -9
-41 -25 -19 -16 -30 -29 -26 -29 5 0 0 -9 -10 -20 -12 -14 -20 -41 -23 -79 -5
-67 13 -114 60 -160 32 -31 115 -64 124 -50 3 5 12 5 22 0 20 -10 87 16 117
47 52 51 79 108 64 135 -6 10 -5 18 1 22 7 4 8 11 1 18 -5 7 -9 16 -9 20 0 13
-26 71 -37 82 -38 38 -80 57 -133 60 -31 2 -67 1 -79 -1z"/>
<path d="M1205 2770 c-4 -6 -12 -10 -18 -8 -7 1 -38 -11 -69 -25 -31 -15 -64
-27 -72 -27 -9 0 -16 -4 -16 -9 0 -5 -15 -13 -32 -16 -18 -4 -37 -11 -43 -15
-5 -3 -36 -17 -67 -30 -32 -12 -58 -27 -58 -34 0 -6 -5 -4 -10 4 -5 8 -10 11
-10 5 0 -5 -29 -21 -64 -34 l-65 -24 15 -29 c14 -26 19 -29 47 -22 18 4 42 8
54 10 12 1 27 5 32 9 6 3 11 1 11 -5 0 -7 6 -8 18 -1 15 8 25 4 49 -18 29 -27
61 -96 49 -108 -3 -4 -1 -12 4 -18 10 -12 9 -1896 -1 -1964 -3 -19 -10 -36
-17 -39 -6 -2 -9 -9 -6 -16 6 -15 -35 -76 -61 -90 -11 -6 -23 -15 -26 -20 -4
-5 -14 -6 -23 -3 -8 3 -18 2 -22 -4 -4 -7 -10 -6 -18 0 -7 6 -15 8 -18 5 -13
-12 -147 80 -198 136 -7 8 -59 40 -65 41 -2 0 -19 6 -37 13 -20 9 -41 11 -59
6 -15 -5 -31 -4 -36 1 -5 5 -22 -5 -41 -22 -17 -16 -32 -26 -32 -22 0 4 -11
-12 -25 -36 -14 -23 -25 -58 -25 -76 0 -53 12 -95 26 -95 8 0 14 -5 14 -11 0
-19 103 -93 114 -82 3 4 6 1 6 -5 0 -6 7 -9 15 -6 8 4 15 2 15 -4 0 -12 288
-13 310 -1 8 5 35 14 60 21 25 6 47 12 50 13 45 14 133 74 196 132 56 53 129
155 140 197 3 14 11 26 17 26 6 0 8 3 4 6 -3 3 5 35 19 70 13 35 23 65 23 67
-1 1 3 25 7 52 4 28 8 53 9 57 0 3 3 10 7 13 4 4 8 466 8 1026 l0 1019 -39 0
c-22 0 -43 -5 -46 -10z"/>
</g>
</svg>
